<svg xmlns="http://www.w3.org/2000/svg" width="53" height="52" viewBox="0 0 53 52" fill="none">
    <path d="M42.55 25.72L42.3668 25.7041C42.3634 25.7088 42.3605 25.7133 42.3581 25.7173C42.3586 25.7182 42.3592 25.7191 42.3597 25.72H42.55ZM42.55 25.72L42.3704 25.7356C42.3705 25.7357 42.3705 25.7358 42.3706 25.7359L42.55 25.72ZM42.0543 28.4036L42.0539 28.4058C41.8967 29.2805 41.6508 30.1658 41.336 31.0019L41.3357 31.0028C41.0214 31.8475 40.6181 32.674 40.1551 33.4522C39.6928 34.2293 39.1519 34.9766 38.5527 35.6544L38.5502 35.6573C37.9602 36.3457 37.2912 36.995 36.5832 37.5653C35.8734 38.1371 35.0955 38.6686 34.2897 39.1108L34.2897 39.1108L34.2865 39.1126C33.4904 39.5647 32.6343 39.9486 31.7578 40.2539L31.7569 40.2542C30.8906 40.5594 29.9742 40.7959 29.0576 40.9536C28.1418 41.1112 27.206 41.19 26.28 41.19C25.344 41.19 24.4081 41.1112 23.4924 40.9536C22.5758 40.7959 21.6594 40.5594 20.7931 40.2542L20.7922 40.2539C19.9157 39.9486 19.0596 39.5647 18.2635 39.1126L18.2603 39.1108C17.4555 38.6692 16.6875 38.1379 15.9661 37.5648C15.2584 36.9945 14.5897 36.3455 13.9998 35.6573L13.9998 35.6573L13.9973 35.6544C13.3981 34.9766 12.8572 34.2293 12.3949 33.4522C11.9319 32.674 11.5286 31.8475 11.2143 31.0028L11.214 31.0019C10.8992 30.1658 10.6533 29.2805 10.4961 28.4058L10.4961 28.4058L10.4957 28.4036C10.3287 27.5199 10.25 26.6155 10.25 25.72C10.25 24.8245 10.3287 23.9201 10.4957 23.0364L10.4957 23.0364L10.4961 23.0338C10.6533 22.15 10.899 21.2747 11.2141 20.4276C11.5286 19.5926 11.9319 18.766 12.3949 17.9878C12.8572 17.2108 13.3983 16.4629 13.9985 15.7742L13.9987 15.774C14.5894 15.0947 15.2588 14.4451 15.9668 13.8747L15.9671 13.8744C16.6864 13.2931 17.4542 12.7715 18.2603 12.3292L18.2603 12.3292L18.2635 12.3274C19.0596 11.8753 19.9157 11.4914 20.7922 11.1861L20.7931 11.1858C21.6594 10.8806 22.5758 10.6441 23.4924 10.4864C24.4081 10.3288 25.344 10.25 26.28 10.25C27.206 10.25 28.1418 10.3288 29.0576 10.4864C29.9742 10.6441 30.8906 10.8806 31.7569 11.1858L31.7578 11.1861C32.6343 11.4914 33.4904 11.8753 34.2865 12.3274L34.2865 12.3274L34.2897 12.3292C35.0968 12.772 35.8739 13.2935 36.5815 13.8734L36.5832 13.8747C37.2912 14.4451 37.9606 15.0947 38.5513 15.774L38.5515 15.7742C39.1517 16.4629 39.6928 17.2108 40.1551 17.9878C40.618 18.7659 41.0214 19.5924 41.3358 20.4274C41.651 21.2745 41.8967 22.1499 42.0538 23.0338L42.0543 23.0364C42.1782 23.6921 42.2306 24.5941 42.2667 25.2157C42.279 25.4264 42.2893 25.6049 42.3 25.7307C42.2994 26.6227 42.2206 27.5234 42.0543 28.4036Z" fill="#080808" stroke="white" stroke-width="0.5"/>
    <path d="M42.55 25.72C42.55 26.63 42.47 27.55 42.3 28.45C42.14 29.34 41.89 30.24 41.57 31.09C41.25 31.95 40.84 32.79 40.37 33.58C39.9 34.37 39.35 35.13 38.74 35.82C38.14 36.52 37.46 37.18 36.74 37.76C36.02 38.34 35.23 38.88 34.41 39.33C33.6 39.79 32.73 40.18 31.84 40.49C30.96 40.8 30.03 41.04 29.1 41.2C28.17 41.36 27.22 41.44 26.28 41.44C25.33 41.44 24.38 41.36 23.45 41.2C22.52 41.04 21.59 40.8 20.71 40.49C19.82 40.18 18.95 39.79 18.14 39.33C17.32 38.88 16.54 38.34 15.81 37.76C15.09 37.18 14.41 36.52 13.81 35.82C13.2 35.13 12.65 34.37 12.18 33.58C11.71 32.79 11.3 31.95 10.98 31.09C10.66 30.24 10.41 29.34 10.25 28.45C10.08 27.55 10 26.63 10 25.72C10 24.81 10.08 23.89 10.25 22.99C10.41 22.09 10.66 21.2 10.98 20.34C11.3 19.49 11.71 18.65 12.18 17.86C12.65 17.07 13.2 16.31 13.81 15.61C14.41 14.92 15.09 14.26 15.81 13.68C16.54 13.09 17.32 12.56 18.14 12.11C18.95 11.65 19.82 11.26 20.71 10.95C21.59 10.64 22.52 10.4 23.45 10.24C24.38 10.08 25.33 10 26.28 10C27.22 10 28.17 10.08 29.1 10.24C30.03 10.4 30.96 10.64 31.84 10.95C32.73 11.26 33.6 11.65 34.41 12.11C35.23 12.56 36.02 13.09 36.74 13.68C37.46 14.26 38.14 14.92 38.74 15.61C39.35 16.31 39.9 17.07 40.37 17.86C40.84 18.65 41.25 19.49 41.57 20.34C41.89 21.2 42.14 22.09 42.3 22.99C42.47 23.89 42.51 25.26 42.55 25.72C42.59 26.17 42.59 25.26 42.55 25.72Z" fill="#080808"/>
    <path d="M42.55 25.72C42.55 26.63 42.47 27.55 42.3 28.45C42.14 29.34 41.89 30.24 41.57 31.09C41.25 31.95 40.84 32.79 40.37 33.58C39.9 34.37 39.35 35.13 38.74 35.82C38.14 36.52 37.46 37.18 36.74 37.76C36.02 38.34 35.23 38.88 34.41 39.33C33.6 39.79 32.73 40.18 31.84 40.49C30.96 40.8 30.03 41.04 29.1 41.2C28.17 41.36 27.22 41.44 26.28 41.44C25.33 41.44 24.38 41.36 23.45 41.2C22.52 41.04 21.59 40.8 20.71 40.49C19.82 40.18 18.95 39.79 18.14 39.33C17.32 38.88 16.54 38.34 15.81 37.76C15.09 37.18 14.41 36.52 13.81 35.82C13.2 35.13 12.65 34.37 12.18 33.58C11.71 32.79 11.3 31.95 10.98 31.09C10.66 30.24 10.41 29.34 10.25 28.45C10.08 27.55 10 26.63 10 25.72C10 24.81 10.08 23.89 10.25 22.99C10.41 22.09 10.66 21.2 10.98 20.34C11.3 19.49 11.71 18.65 12.18 17.86C12.65 17.07 13.2 16.31 13.81 15.61C14.41 14.92 15.09 14.26 15.81 13.68C16.54 13.09 17.32 12.56 18.14 12.11C18.95 11.65 19.82 11.26 20.71 10.95C21.59 10.64 22.52 10.4 23.45 10.24C24.38 10.08 25.33 10 26.28 10C27.22 10 28.17 10.08 29.1 10.24C30.03 10.4 30.96 10.64 31.84 10.95C32.73 11.26 33.6 11.65 34.41 12.11C35.23 12.56 36.02 13.09 36.74 13.68C37.46 14.26 38.14 14.92 38.74 15.61C39.35 16.31 39.9 17.07 40.37 17.86C40.84 18.65 41.25 19.49 41.57 20.34C41.89 21.2 42.14 22.09 42.3 22.99C42.47 23.89 42.51 25.26 42.55 25.72ZM42.55 25.72C42.59 25.26 42.59 26.17 42.55 25.72Z" stroke="white" stroke-width="0.5" stroke-linecap="round"/>
    <path d="M30.7907 32.3032C30.7882 32.513 30.7057 32.6972 30.5433 32.8557C30.3809 33.0142 30.1825 33.0921 29.948 33.0892C29.5777 33.0847 29.307 33.0136 29.1358 32.8757C28.9648 32.7255 28.8816 32.4591 28.8863 32.0765C28.8918 31.6198 28.8867 31.021 28.871 30.2802C28.8537 29.6628 28.8477 29.1442 28.8527 28.7246C28.8551 28.5271 28.8706 28.268 28.8992 27.9474C28.9274 27.6515 28.9425 27.4295 28.9443 27.2814C28.9101 27.0464 28.8198 26.854 28.6735 26.7041C28.5273 26.5419 28.337 26.4593 28.1025 26.4565C27.9914 26.4551 27.8994 26.4046 27.8265 26.305C27.7538 26.193 27.7181 26.0815 27.7195 25.9704C27.7229 25.6865 27.8366 25.4719 28.0606 25.3265C28.2969 25.1812 28.5755 25.1105 28.8964 25.1144C29.5629 25.1224 30.021 25.523 30.2706 26.316C30.596 25.9496 30.9637 25.6578 31.3737 25.4406C31.7962 25.2112 32.1987 25.0987 32.5813 25.1034C33.038 25.1089 33.45 25.2373 33.8173 25.4887C34.1969 25.7401 34.3842 26.0757 34.3791 26.4953C34.3763 26.7299 34.2685 26.9693 34.0557 27.2136C33.8552 27.458 33.65 27.579 33.4402 27.5765C33.3291 27.5751 33.2307 27.5493 33.1449 27.4988C33.0716 27.4362 32.9801 27.3487 32.8703 27.2363C32.7484 27.1114 32.6445 27.0237 32.5587 26.9733C32.4731 26.9105 32.3747 26.8785 32.2636 26.8771C32.0661 26.8747 31.8806 26.9034 31.7071 26.963C31.5335 27.0226 31.4154 27.0952 31.3526 27.1809C31.1514 27.4871 30.9999 27.763 30.8982 28.0086C30.8088 28.2545 30.7624 28.5193 30.759 28.8032C30.7565 29.013 30.7483 29.1796 30.7344 29.3028L30.7032 30.3579C30.7012 30.5184 30.7052 30.6974 30.7152 30.895C30.7251 31.0927 30.7357 31.2409 30.7468 31.3398C30.7798 31.6735 30.7945 31.9946 30.7907 32.3032Z" fill="white"/>
</svg>